<?xml version="1.0"?>
<svg xmlns="http://www.w3.org/2000/svg" xmlns:xlink="http://www.w3.org/1999/xlink" xmlns:svgjs="http://svgjs.com/svgjs" version="1.1" width="512" height="512" x="0" y="0" viewBox="0 0 493.735 493.735" style="enable-background:new 0 0 512 512" xml:space="preserve" class="">
  <g transform="matrix(1,0,0,1,0,0)">
    <g xmlns="http://www.w3.org/2000/svg">
      <path d="m68.777 163.677-36.987-30.035c-9.664-7.847-11.136-22.043-3.288-31.706 7.847-9.663 22.043-11.136 31.706-3.288l8.568 6.958 43.897 38.379-19.034 40.045z" fill="#743d2b" data-original="#fed2a4" style="" class=""/>
      <g>
        <g>
          <path d="m68.777 377.479c0 18.081 14.658 32.739 32.739 32.739h172.836c14.809 0 26.815-12.005 26.815-26.815v-350.664c-.001-18.081-14.658-32.739-32.74-32.739h-166.911c-18.082 0-32.739 14.658-32.739 32.739z" fill="#f6f6f6" data-original="#a79ba7" style="" class=""/>
        </g>
        <path d="m72.984 153.14c-1.415 0-2.817.081-4.208.218v208.951c4.814 1.837 9.952 2.813 15.152 2.813 12.88 0 24.921-5.731 33.038-15.727l1.277-1.573c7.163-8.82 10.462-19.903 9.29-31.205-.516-4.971-1.87-9.721-3.975-14.094 1.177-1.149 2.298-2.369 3.35-3.664l.713-.877c10.567-13.013 12.155-30.436 5.557-44.716 1.408-1.32 2.746-2.731 3.984-4.254l.588-.725c7.163-8.821 10.462-19.903 9.29-31.205-1.172-11.303-6.676-21.472-15.497-28.634l-31.757-25.789c-7.557-6.138-17.076-9.519-26.802-9.519z" fill="#dcdcdc" data-original="#918291" style="" class=""/>
        <path d="m301.166 383.403v-197.687l-28.482-30.219c-5.911-6.271-14.243-9.867-22.859-9.867-9.081 0-17.711 3.925-23.679 10.768l-1.857 2.13c-19.506 22.368-20.42 55.59-2.174 78.995l33.287 42.698-35.923 63.022c-11.008 19.313-14.608 41.941-10.136 63.716l.669 3.259h64.339c14.81 0 26.815-12.005 26.815-26.815z" fill="#918291" data-original="#dcdcdc" style="" class=""/>
        <g>
          <path d="m271.166 32.739c0-1.513-1.226-2.739-2.739-2.739h-36.587c-2.064 0-3.891 1.337-4.515 3.304l-.827 2.605c-1.499 4.724-5.885 7.934-10.841 7.934h-57.967c-4.956 0-9.342-3.209-10.841-7.934l-.826-2.605c-.624-1.968-2.451-3.305-4.515-3.305h-39.992c-1.513 0-2.739 1.226-2.739 2.739v344.74c0 1.513 1.226 2.739 2.739 2.739h169.65z" fill="#788474" data-original="#f9f7f8" style="" class=""/>
        </g>
        <path d="m207.874 380.219h63.293v-226.213c-5.776-5.342-13.437-8.376-21.341-8.376-9.081 0-17.711 3.925-23.679 10.768l-1.857 2.13c-19.506 22.368-20.42 55.59-2.174 78.995l33.287 42.698-35.923 63.022c-6.526 11.449-10.426 24.066-11.606 36.976z" fill="#6c7668" data-original="#efedef" style="" class=""/>
        <path d="m98.777 161.873v200.577c7.03-2.61 13.32-7.058 18.19-13.056l1.277-1.573c7.163-8.82 10.462-19.903 9.29-31.205-.516-4.971-1.87-9.721-3.975-14.094 1.177-1.149 2.298-2.369 3.35-3.664l.713-.877c10.567-13.013 12.155-30.436 5.557-44.716 1.408-1.32 2.746-2.731 3.984-4.254l.588-.725c7.163-8.821 10.462-19.903 9.29-31.205-1.172-11.303-6.676-21.472-15.497-28.634l-31.757-25.789c-.331-.269-.671-.526-1.01-.785z" fill="#6c7668" data-original="#efedef" style="" class=""/>
        <g fill="#743d2b">
          <path d="m469.464 488.154-86.547-101.81c-2.783-3.274-4.311-7.431-4.311-11.727v-38.613c0-25.028-9.561-49.111-26.727-67.325l-93.747-99.463c-4.627-4.909-12.478-4.757-16.912.327l-1.857 2.13c-13.252 15.195-13.869 37.652-1.474 53.553l34.75 44.575c4.098 5.257 4.618 12.467 1.318 18.258l-37.101 65.089c-8.598 15.084-11.413 32.781-7.921 49.789l2.764 13.46c5.974 29.091 29.31 51.46 58.627 56.199l13.253 17.29c1.86 2.427 4.744 3.85 7.801 3.85h155.502c2.888-.001 4.452-3.382 2.582-5.582z" fill="#743d2b" data-original="#fed2a4" style="" class=""/>
          <path d="m89.931 239.692-31.758-25.789c-9.664-7.847-11.136-22.043-3.288-31.706l.588-.725c7.847-9.664 22.043-11.136 31.706-3.288l31.758 25.789c9.664 7.847 11.136 22.043 3.288 31.706l-.588.725c-7.847 9.663-22.043 11.135-31.706 3.288z" fill="#743d2b" data-original="#fed2a4" style="" class=""/>
          <path d="m79.684 289.532-32.029-26.01c-9.664-7.847-11.136-22.043-3.288-31.706l.706-.87c7.847-9.664 22.043-11.136 31.706-3.288l32.029 26.01c9.664 7.847 11.136 22.043 3.288 31.706l-.706.87c-7.847 9.663-22.042 11.135-31.706 3.288z" fill="#743d2b" data-original="#fed2a4" style="" class=""/>
          <path d="m69.733 340.077-33.347-27.079c-9.664-7.847-11.136-22.043-3.288-31.706l1.279-1.575c7.847-9.664 22.043-11.136 31.706-3.288l33.347 27.079c9.664 7.847 11.136 22.043 3.288 31.706l-1.279 1.575c-7.847 9.663-22.042 11.135-31.706 3.288z" fill="#743d2b" data-original="#fed2a4" style="" class=""/>
        </g>
        <g>
          <!-- <path d="m186.674 143.984c-19.235 0-34.883-15.648-34.883-34.883s15.648-34.884 34.883-34.884 34.884 15.648 34.884 34.884c-.001 19.235-15.65 34.883-34.884 34.883zm0-54.766c-10.964 0-19.883 8.92-19.883 19.884s8.919 19.883 19.883 19.883 19.884-8.919 19.884-19.883-8.921-19.884-19.884-19.884z" fill="#f7c59f" data-original="#6bd9e7" style="" class=""/> -->
        </g>
        <g>
          <!-- <path d="m219.808 153.632c-1.919 0-3.839-.732-5.303-2.196l-15.819-15.818c-2.929-2.93-2.929-7.678 0-10.606 2.929-2.93 7.678-2.929 10.606-.001l15.819 15.818c2.929 2.93 2.929 7.678 0 10.606-1.464 1.464-3.384 2.197-5.303 2.197z" fill="#f7c59f" data-original="#6bd9e7" style="" class=""/> -->
        </g>
        <path d="m147.377 286.139c-5.356 0-9.697 4.342-9.697 9.697v32.091c0 5.356 4.342 9.697 9.697 9.697h82.139c3.987 0 7.22-3.232 7.22-7.22v-37.046c0-3.987-3.232-7.22-7.22-7.22h-82.139z" fill="#f7c59f" data-original="#6bd9e7" style="" class=""/>
      </g>
    </g>
  </g>
</svg>